<!DOCTYPE svg PUBLIC "-//W3C//DTD SVG 1.1//EN" "http://www.w3.org/Graphics/SVG/1.1/DTD/svg11.dtd">
<!-- Uploaded to: SVG Repo, www.svgrepo.com, Transformed by: SVG Repo Mixer Tools -->
<svg fill="#ffffff" width="800px" height="800px" viewBox="0 0 24 24" xmlns="http://www.w3.org/2000/svg">
<g id="SVGRepo_bgCarrier" stroke-width="0"/>
<g id="SVGRepo_tracerCarrier" stroke-linecap="round" stroke-linejoin="round"/>
<g id="SVGRepo_iconCarrier">
<path d="M12 2C6.486 2 2 6.486 2 12s4.486 10 10 10 10-4.486 10-10S17.514 2 12 2zm-4.607 8.055A4.956 4.956 0 0 0 7 12H5a6.978 6.978 0 0 1 2.051-4.95 6.978 6.978 0 0 1 2.225-1.5l.779 1.842c-.596.252-1.13.612-1.59 1.072s-.82.995-1.072 1.591zm4.6 3.945a2.007 2.007 0 1 1 0-4.014 2.007 2.007 0 0 1 0 4.014z"/>
</g>
</svg>