<!DOCTYPE svg PUBLIC "-//W3C//DTD SVG 1.1//EN" "http://www.w3.org/Graphics/SVG/1.1/DTD/svg11.dtd">
<!-- Uploaded to: SVG Repo, www.svgrepo.com, Transformed by: SVG Repo Mixer Tools -->
<svg fill="#ffffff" height="800px" width="800px" version="1.1" id="Layer_1" xmlns="http://www.w3.org/2000/svg" xmlns:xlink="http://www.w3.org/1999/xlink" viewBox="0 0 512 512" xml:space="preserve">
<g id="SVGRepo_bgCarrier" stroke-width="0"/>
<g id="SVGRepo_tracerCarrier" stroke-linecap="round" stroke-linejoin="round"/>
<g id="SVGRepo_iconCarrier"> <g> <g> <g> <polygon points="256,142.219 170.667,255.989 341.333,255.989 "/> <path d="M256,0C114.837,0,0,114.837,0,256s114.837,256,256,256s256-114.837,256-256S397.163,0,256,0z M110.933,264.533 l128-170.667c8.043-10.752,26.091-10.752,34.133,0l128,170.667c4.843,6.464,5.611,15.104,2.027,22.336 c-3.627,7.232-11.008,11.797-19.093,11.797H128c-8.085,0-15.467-4.565-19.093-11.797 C105.323,279.637,106.091,270.997,110.933,264.533z M384,362.667H128c-11.797,0-21.333-9.557-21.333-21.333 c0-11.776,9.536-21.333,21.333-21.333h256c11.797,0,21.333,9.557,21.333,21.333C405.333,353.109,395.797,362.667,384,362.667z"/> </g> </g> </g> </g>
</svg>